<svg xmlns="http://www.w3.org/2000/svg" width="1024" height="1024" viewBox="0 0 1024 1024">
  <defs>
    <linearGradient id="grad" x1="0%" y1="0%" x2="100%" y2="100%">
      <stop offset="0%" style="stop-color:#4FC08D;stop-opacity:1" />
      <stop offset="100%" style="stop-color:#34A853;stop-opacity:1" />
    </linearGradient>
  </defs>
  <g transform="translate(-12, 189) scale(2.1)">
    <path
      fill="url(#grad)"
      d="M358.015381,21.986347 C377.168396,24.388474 394.024231,39.318157 398.919769,58.638702 C402.301453,71.984894 400.517578,84.732971 393.816772,96.955353 C391.941223,100.376297 391.376648,104.759476 391.086151,108.764755 C389.643921,128.649750 394.654510,146.882843 406.079193,163.240692 C413.422424,173.754807 423.056274,181.982330 435.043915,186.197754 C443.585022,189.201218 451.885284,191.882614 459.238220,197.488968 C469.103424,205.010803 474.384460,215.203354 476.816254,226.744461 C479.785553,240.836685 476.514771,254.004410 468.054382,265.791565 C459.919891,277.124664 448.990295,283.754608 435.218506,286.046967 C416.634186,289.140381 400.978302,283.322235 388.516052,269.827240 C380.031555,260.639618 376.157166,249.581451 376.289124,236.379715 C376.402344,225.053207 380.852142,215.739716 384.438507,205.728073 C386.719696,199.359848 387.889709,192.520844 388.927399,185.795639 C390.852539,173.318848 388.028442,161.388351 382.827271,150.180038 C377.826355,139.403351 371.403961,129.574966 361.000183,122.830193 C358.078522,120.936089 355.750946,121.546539 353.334442,122.383324 C331.649475,129.892258 315.110962,143.592316 304.037415,163.790085 C296.755920,177.071335 293.034424,191.242371 294.104706,206.375244 C294.611023,213.534225 296.176331,220.623810 297.361359,227.728241 C300.458191,246.293793 293.731720,264.060638 279.439514,275.743988 C270.702087,282.886475 260.301331,286.715363 249.076828,286.892029 C223.742859,287.290802 200.988022,268.903290 197.791946,242.874603 C196.486725,232.244888 198.478683,222.730560 202.928284,213.455765 C207.895401,203.102264 211.096695,192.232941 210.872086,180.813965 C210.540985,163.982346 205.472000,148.540237 194.116943,135.734009 C190.245895,131.368225 185.788788,127.444199 181.184525,123.849876 C179.635376,122.640556 176.496735,122.215279 174.601624,122.888077 C143.617828,133.887726 124.251686,155.167480 116.813377,187.522980 C113.659309,201.242691 116.162933,214.179886 119.093124,227.336823 C122.077728,240.738037 119.142075,253.226822 111.724838,264.416901 C102.182114,278.813660 88.090126,286.380066 71.051598,286.836853 C45.779709,287.514374 23.184338,268.895721 19.815153,242.850876 C16.367397,216.198608 34.878613,190.950027 60.629051,186.940994 C80.595627,183.832428 97.344261,174.594345 110.244423,159.102707 C120.083267,147.287384 125.401634,133.513321 127.207748,118.010666 C128.764267,104.650391 124.323273,92.525238 121.853531,79.969994 C119.191399,66.436646 122.150810,54.000832 129.729584,43.017040 C140.053986,28.054060 154.957153,20.417311 173.145050,21.134794 C197.565918,22.098160 217.665756,39.322174 221.170456,64.836502 C222.903564,77.453629 218.976837,88.009598 213.950531,99.150307 C211.002777,105.683937 210.811646,113.991348 211.224350,121.398132 C212.027161,135.806335 215.922745,149.761520 224.932724,161.249130 C231.049530,169.047989 238.818771,175.582031 246.078735,182.438461 C249.211792,185.397385 252.834991,183.739914 256.270691,182.368576 C282.868713,171.752182 299.058197,152.377563 304.984558,124.423607 C308.052948,109.950348 304.399536,96.141014 301.086151,82.156883 C297.346619,66.374290 301.012390,51.733822 311.379852,39.235802 C321.774506,26.705021 335.533264,20.904562 351.770264,21.042114 C353.706665,21.058517 355.638153,21.651075 358.015381,21.986347z"
    />
  </g>
</svg>
